<svg xmlns="http://www.w3.org/2000/svg" viewBox="0 0 200 200"><defs><style>.cls-1{fill:#231916;}</style></defs><title>anexoPrancheta 3</title><g id="图层_1" data-name="图层 1"><path class="cls-1" d="M100,200c-48.46,0-87.88-39.67-87.88-88.44V62c0-34.18,27.64-62,61.61-62s61.6,27.8,61.6,62v45.31a33.66,33.66,0,1,1-67.31,0V62.08H79.34v45.21a22.34,22.34,0,1,0,44.67,0V62c0-27.93-22.56-50.66-50.28-50.66S23.44,34.05,23.44,62v49.58c0,42.53,34.34,77.12,76.56,77.12s76.56-34.59,76.56-77.12V6.34h11.32V111.56C187.88,160.33,148.46,200,100,200Z"/></g></svg>