<svg xmlns="http://www.w3.org/2000/svg" viewBox="0 0 200 200"><defs><style>.cls-1{fill:#ffffff;}</style></defs><title>checkPrancheta 3</title><g id="图层_1" data-name="图层 1"><polygon class="cls-1" points="93.92 140.34 53.54 103.34 61.19 95 91.99 123.21 136.91 58.17 146.23 64.61 93.92 140.34"/><polygon class="cls-1" points="11.32 63.55 0 63.55 0 14.3 48.38 14.3 48.38 25.62 11.32 25.62 11.32 63.55"/><polygon class="cls-1" points="200 63.55 188.68 63.55 188.68 25.62 151.46 25.62 151.46 14.3 200 14.3 200 63.55"/><polygon class="cls-1" points="48.38 185.7 0 185.7 0 136.44 11.32 136.44 11.32 174.38 48.38 174.38 48.38 185.7"/><polygon class="cls-1" points="200 185.7 151.46 185.7 151.46 174.38 188.68 174.38 188.68 136.44 200 136.44 200 185.7"/></g></svg>