<svg id="图层_1" data-name="图层 1" xmlns="http://www.w3.org/2000/svg" viewBox="0 0 58 58"><defs><style>.cls-1{fill:none;stroke:#1d1d1b;stroke-miterlimit:10;stroke-width:2.75px;}</style></defs><title>dronePrancheta 3</title><circle class="cls-1" cx="29" cy="29" r="4.6"/><path class="cls-1" d="M44,9.23,48.77,14l-7.54,7.54a10.56,10.56,0,0,0,0,14.93L48.77,44,44,48.77l-7.54-7.53a10.54,10.54,0,0,0-14.92,0L14,48.77,9.23,44l7.54-7.54a10.55,10.55,0,0,0,0-14.92L9.23,14,14,9.24l7.54,7.54a10.55,10.55,0,0,0,14.92,0Z"/><line class="cls-1" x1="1.6" y1="21.64" x2="21.63" y2="1.6"/><line class="cls-1" x1="36.37" y1="56.41" x2="56.4" y2="36.37"/><line class="cls-1" x1="36.37" y1="1.6" x2="56.4" y2="21.63"/><line class="cls-1" x1="1.6" y1="36.37" x2="21.63" y2="56.4"/></svg>