<svg xmlns="http://www.w3.org/2000/svg" viewBox="0 0 200 200"><defs><style>.cls-1{fill:#231916;}</style></defs><title>excelenciaPrancheta 3</title><g id="图层_1" data-name="图层 1"><polygon class="cls-1" points="57.82 200 37.07 174.85 4.86 171.89 41.79 102.44 51.13 107.41 21.68 162.81 42.43 164.72 55.91 181.06 82.18 131.65 91.52 136.62 57.82 200"/><polygon class="cls-1" points="142.18 200 108.48 136.62 117.82 131.65 144.09 181.06 157.57 164.72 178.32 162.81 148.87 107.41 158.21 102.44 195.14 171.89 162.93 174.85 142.18 200"/><path class="cls-1" d="M100,10.58a60,60,0,1,1-60,60,60,60,0,0,1,60-60M100,0a70.54,70.54,0,1,0,70.54,70.54A70.54,70.54,0,0,0,100,0Z"/></g></svg>