<svg xmlns="http://www.w3.org/2000/svg" viewBox="0 0 200 200"><defs><style>.cls-1{fill:#231916;}</style></defs><title>globePrancheta 3</title><g id="图层_1" data-name="图层 1"><path class="cls-1" d="M95.38,137.83a67.47,67.47,0,1,1,67.47-67.47A67.54,67.54,0,0,1,95.38,137.83Zm0-124.33a56.86,56.86,0,1,0,56.87,56.86A56.93,56.93,0,0,0,95.38,13.5Z"/><path class="cls-1" d="M95.38,169.85A99.62,99.62,0,0,1,5.12,112.27l9.62-4.47a89.09,89.09,0,0,0,17.8,25.42A88.88,88.88,0,0,0,184.27,70.36,88.28,88.28,0,0,0,158.22,7.5l7.5-7.5A99.48,99.48,0,0,1,95.38,169.85Z"/><rect class="cls-1" x="90.08" y="164.55" width="10.61" height="30.15"/><rect class="cls-1" x="60.91" y="189.39" width="69.24" height="10.61"/></g></svg>