<svg xmlns="http://www.w3.org/2000/svg" viewBox="0 0 200 200"><defs><style>.cls-1{fill:#231916;}</style></defs><title>inclusaoPrancheta 3</title><g id="图层_1" data-name="图层 1"><path class="cls-1" d="M153.76,184.76l-7-29.21c-4-2.57-18.16-10.38-43.76-10.39a5.34,5.34,0,0,1-3.72-1.53c-2.19-2.06-4.36-6.61-3.82-24.78l.05-1.85,19.8-19.48c2-6.54,12.1-42.66-.1-61-.32-.47-8.71-12.12-33.85-12.12s-33.76,12-33.85,12.1C35.3,54.85,45.42,91,47.4,97.52L67.2,117l.06,1.85c.53,18.17-1.63,22.72-3.82,24.78a5.31,5.31,0,0,1-3.72,1.53C33.88,145.17,19.9,153,16,155.53L9,184.76,0,182.62,7.77,150.2l1.21-1c.65-.53,15.89-12.64,48.24-13.24.45-1.89,1.05-6.14.88-15L39.33,102.5,39,101.44c-.62-1.87-15-46.18.86-70,.42-.65,11.07-16.21,41.51-16.21s41.08,15.56,41.52,16.23c15.87,23.79,1.47,68.1.85,70l-.35,1.06L104.61,121c-.17,8.88.44,13.13.88,15,32.36.6,47.6,12.71,48.25,13.24l1.21,1,7.77,32.42Z"/><rect class="cls-1" x="144.77" y="101.19" width="55.23" height="9.21"/><rect class="cls-1" x="167.78" y="78.18" width="9.21" height="55.23"/></g></svg>