<svg xmlns="http://www.w3.org/2000/svg" viewBox="0 0 200 200"><defs><style>.cls-1{fill:#231916;}</style></defs><title>localPrancheta 3</title><g id="图层_1" data-name="图层 1"><path class="cls-1" d="M100,10.24c39.52,0,71.67,32.58,71.67,72.64,0,19.51-7.34,37.73-22.43,55.68-18.15,21.58-38.92,39.73-49.14,48.2-11.41-9.66-35.48-30.77-49.16-48-11.18-14.07-22.61-31.71-22.61-55.9,0-40.06,32.15-72.64,71.67-72.64M100,0C54.76,0,18.09,37.1,18.09,82.88c0,25.89,11.47,45.45,24.84,62.27C62.12,169.31,100,200,100,200s30.93-23.75,57.07-54.85c13.83-16.45,24.84-36.68,24.84-62.27C181.91,37.1,145.24,0,100,0Z"/><path class="cls-1" d="M100,62.9A20.8,20.8,0,1,1,79.2,83.7,20.82,20.82,0,0,1,100,62.9m0-10.24a31,31,0,1,0,31,31,31,31,0,0,0-31-31Z"/></g></svg>