<svg xmlns="http://www.w3.org/2000/svg" viewBox="0 0 200 200"><defs><style>.cls-1{fill:#ffffff;}</style></defs><title>lovePrancheta 3</title><g id="图层_1" data-name="图层 1"><path class="cls-1" d="M99.64,188.74,98,188.22C97,187.9,0,155.81,0,72.05v-3.8C0,32.56,28.74,13.71,49.15,11.72c3.53-.34,7.44-.46,9.93-.46,21.76,0,33.71,9.14,43.84,20.32C113.05,20.4,125,11.26,146.76,11.26a58.76,58.76,0,0,1,6.61.38l.82.08C177,13.94,200,34.07,200,68.25v3.8c0,35.3-17.17,66.62-49.65,90.6a180.54,180.54,0,0,1-49.08,25.59ZM59.08,22.17c-2.81,0-6.29.16-8.87.41-16.32,1.59-39.3,16.81-39.3,45.67v3.8c0,70.06,76.57,100.76,88.8,105.21,12.3-4.3,89.38-34.13,89.38-105.21v-3.8c0-30.94-21.5-44.26-36-45.67l-.83-.08a47.79,47.79,0,0,0-5.54-.33c-18.41,0-27.81,7.15-39.66,21.24l-4.18,5-4.17-5C86.89,29.32,77.5,22.17,59.08,22.17Z"/></g></svg>