<svg xmlns="http://www.w3.org/2000/svg" viewBox="0 0 200 200"><defs><style>.cls-1{fill:#ffffff;}</style></defs><title>moneyPrancheta 3</title><g id="图层_1" data-name="图层 1"><path class="cls-1" d="M100,10.34A89.66,89.66,0,1,1,10.34,100,89.76,89.76,0,0,1,100,10.34M100,0A100,100,0,1,0,200,100,100,100,0,0,0,100,0Z"/><path class="cls-1" d="M103.33,146.51c-24.69,0-43.84-13.89-43.84-25.84H69.84c0,4.6,13,15.5,33.49,15.5,16.46,0,33.48-7.89,33.48-21.08,0-11-14.41-11.7-15-11.72H86.15c-15.27,0-23.68-7.78-23.68-21.91,0-9.67,8.54-28,40.86-28,31.1,0,37.51,17.84,37.77,18.6l-9.76,3.42c-.19-.47-4.79-11.68-28-11.68-24.14,0-30.52,11.53-30.52,17.63S74.43,93,86.15,93H122c8.85.36,25.17,5.43,25.17,22.07C147.16,130.32,131.79,146.51,103.33,146.51Z"/><rect class="cls-1" x="98.15" y="141.33" width="10.34" height="19.3"/><rect class="cls-1" x="98.15" y="39.37" width="10.34" height="19.3"/></g></svg>