<svg xmlns="http://www.w3.org/2000/svg" viewBox="0 0 200 200"><defs><style>.cls-1{fill:#231916;}</style></defs><title>planetPrancheta 3</title><g id="图层_1" data-name="图层 1"><path class="cls-1" d="M100,10.34A89.66,89.66,0,1,1,10.35,100,89.75,89.75,0,0,1,100,10.34M100,0A100,100,0,1,0,200,100,100,100,0,0,0,100,0Z"/><path class="cls-1" d="M120.52,151.43H19.1V141.08H120.52a10.06,10.06,0,0,0,0-20.12H65a20.41,20.41,0,0,1,0-40.82A10.06,10.06,0,0,0,65,60H19.1V49.67H65a20.41,20.41,0,0,1,0,40.82,10.06,10.06,0,0,0,0,20.12h55.48a20.41,20.41,0,1,1,0,40.82Z"/><path class="cls-1" d="M190.94,90.49H154.3a20.41,20.41,0,0,1,0-40.82h26.87V60H154.3a10.06,10.06,0,0,0,0,20.12h36.64Z"/></g></svg>