<svg xmlns="http://www.w3.org/2000/svg" viewBox="0 0 200 200"><defs><style>.cls-1{fill:#868687;}.cls-2{fill:#231916;}</style></defs><title>settingsPrancheta 3</title><g id="图层_1" data-name="图层 1"><line class="cls-1" x1="102.19" y1="48.28" x2="3.68" y2="48.28"/><rect class="cls-2" x="3.68" y="42.72" width="98.5" height="11.11"/><path class="cls-2" d="M148,11.11a37.17,37.17,0,1,1-37.16,37.17A37.21,37.21,0,0,1,148,11.11M148,0a48.28,48.28,0,1,0,48.28,48.28A48.27,48.27,0,0,0,148,0Z"/><line class="cls-1" x1="97.81" y1="151.72" x2="196.32" y2="151.72"/><rect class="cls-2" x="97.81" y="146.17" width="98.5" height="11.11"/><path class="cls-2" d="M52,114.56a37.17,37.17,0,1,1-37.17,37.16A37.2,37.2,0,0,1,52,114.56m0-11.11a48.28,48.28,0,1,0,48.27,48.27A48.28,48.28,0,0,0,52,103.45Z"/></g></svg>