<svg xmlns="http://www.w3.org/2000/svg" viewBox="0 0 200 200"><defs><style>.cls-1{fill:#231916;}</style></defs><title>sharePrancheta 3</title><g id="图层_1" data-name="图层 1"><path class="cls-1" d="M156,130.34A29.66,29.66,0,1,1,126.35,160,29.7,29.7,0,0,1,156,130.34M156,120a40,40,0,1,0,40,40,40,40,0,0,0-40-40Z"/><path class="cls-1" d="M156,10.34A29.66,29.66,0,1,1,126.35,40,29.7,29.7,0,0,1,156,10.34M156,0a40,40,0,1,0,40,40A40,40,0,0,0,156,0Z"/><path class="cls-1" d="M44,70.73a29.66,29.66,0,1,1-29.66,29.66A29.69,29.69,0,0,1,44,70.73m0-10.34a40,40,0,1,0,40,40,40,40,0,0,0-40-40Z"/><rect class="cls-1" x="67" y="62.28" width="62.15" height="10.35" transform="translate(-20.88 63.22) rotate(-32.48)"/><rect class="cls-1" x="93.96" y="101.86" width="10.35" height="59.66" transform="translate(-65.2 144.6) rotate(-57.52)"/></g></svg>