<svg xmlns="http://www.w3.org/2000/svg" viewBox="0 0 200 200"><defs><style>.cls-1{fill:#231916;}</style></defs><title>talkPrancheta 3</title><g id="图层_1" data-name="图层 1"><path class="cls-1" d="M0,200.4l6.61-9.65s5.12-8,7.34-27.22c.93-7.93-1-15.07-3.43-24.09-3-11.25-6.79-25.23-6.79-46.6C3.73,41.42,47-.4,100.23-.4c21.71,0,39.85,8.26,41.84,9.2A99.77,99.77,0,1,1,51.26,186.29a84.77,84.77,0,0,1-9.84,4.89,120.2,120.2,0,0,1-29.79,7.92Zm51.23-26.6,2.8,1.7a89.05,89.05,0,1,0,83.52-157c-.75-.36-17.61-8.2-37.32-8.2-47.3,0-85.78,37-85.78,82.53,0,20,3.41,32.63,6.42,43.81,2.62,9.74,4.88,18.14,3.73,28.11a109.46,109.46,0,0,1-4.61,22A108.46,108.46,0,0,0,37.3,181.3a81.08,81.08,0,0,0,11.14-5.79Z"/></g></svg>