<svg xmlns="http://www.w3.org/2000/svg" viewBox="0 0 200 200"><defs><style>.cls-1{fill:#231916;}</style></defs><title>userPrancheta 3</title><g id="图层_1" data-name="图层 1"><path class="cls-1" d="M185.42,200l-8.26-34.46c-4.68-3-21.42-12.25-51.63-12.26a6.34,6.34,0,0,1-4.39-1.8c-2.58-2.43-5.14-7.81-4.5-29.24l.06-2.18,23.36-23c2.34-7.73,14.28-50.34-.12-71.93-.38-.55-10.28-14.29-39.94-14.29S60.17,25,60.07,25.13c-14.41,21.61-2.47,64.22-.13,72l23.36,23,.06,2.18c.64,21.43-1.92,26.81-4.5,29.24a6.31,6.31,0,0,1-4.39,1.8c-30.48,0-47,9.18-51.63,12.24L14.58,200,4,197.47l9.17-38.24,1.43-1.16c.76-.63,18.74-14.91,56.92-15.63.52-2.22,1.23-7.23,1-17.71L50.42,103,50,101.7c-.73-2.21-17.72-54.49,1-82.57C51.53,18.36,64.08,0,100,0s48.47,18.36,49,19.14c18.72,28.07,1.73,80.35,1,82.56l-.41,1.25-22.14,21.78c-.2,10.48.51,15.49,1,17.71,38.18.72,56.16,15,56.92,15.63l1.43,1.16L196,197.47Z"/></g></svg>